<?xml version="1.0" encoding="UTF-8" standalone="no"?>
<!DOCTYPE svg PUBLIC "-//W3C//DTD SVG 1.1//EN"
 "http://www.w3.org/Graphics/SVG/1.1/DTD/svg11.dtd">
<!-- Generated by graphviz version 2.43.0 (0)
 -->
<!-- Title: %3 Pages: 1 -->
<svg width="1543pt" height="131pt"
 viewBox="0.00 0.00 1542.64 131.00" xmlns="http://www.w3.org/2000/svg" xmlns:xlink="http://www.w3.org/1999/xlink">
<g id="graph0" class="graph" transform="scale(1 1) rotate(0) translate(4 127)">
<title>%3</title>
<polygon fill="white" stroke="transparent" points="-4,4 -4,-127 1538.64,-127 1538.64,4 -4,4"/>
<!-- 0 -->
<g id="node1" class="node">
<title>0</title>
<ellipse fill="none" stroke="black" cx="29.25" cy="-105" rx="29.5" ry="18"/>
<text text-anchor="middle" x="29.25" y="-101.3" font-family="Times,serif" font-size="14.00">False</text>
</g>
<!-- 1 -->
<g id="node2" class="node">
<title>1</title>
<ellipse fill="none" stroke="black" cx="126.25" cy="-105" rx="49.29" ry="18"/>
<text text-anchor="middle" x="126.25" y="-101.3" font-family="Times,serif" font-size="14.00">LocalInput</text>
</g>
<!-- 2 -->
<g id="node3" class="node">
<title>2</title>
<ellipse fill="none" stroke="black" cx="126.25" cy="-18" rx="35.19" ry="18"/>
<text text-anchor="middle" x="126.25" y="-14.3" font-family="Times,serif" font-size="14.00">Output</text>
</g>
<!-- 1&#45;&gt;2 -->
<g id="edge1" class="edge">
<title>1&#45;&gt;2</title>
<path fill="none" stroke="black" d="M126.25,-86.8C126.25,-75.16 126.25,-59.55 126.25,-46.24"/>
<polygon fill="black" stroke="black" points="129.75,-46.18 126.25,-36.18 122.75,-46.18 129.75,-46.18"/>
<text text-anchor="middle" x="139.25" y="-57.8" font-family="Times,serif" font-size="14.00">false</text>
</g>
<!-- 3 -->
<g id="node4" class="node">
<title>3</title>
<ellipse fill="none" stroke="black" cx="243.25" cy="-105" rx="49.29" ry="18"/>
<text text-anchor="middle" x="243.25" y="-101.3" font-family="Times,serif" font-size="14.00">LocalInput</text>
</g>
<!-- 4 -->
<g id="node5" class="node">
<title>4</title>
<ellipse fill="none" stroke="black" cx="243.25" cy="-18" rx="30.59" ry="18"/>
<text text-anchor="middle" x="243.25" y="-14.3" font-family="Times,serif" font-size="14.00">Latch</text>
</g>
<!-- 3&#45;&gt;4 -->
<g id="edge2" class="edge">
<title>3&#45;&gt;4</title>
<path fill="none" stroke="black" d="M243.25,-86.8C243.25,-75.16 243.25,-59.55 243.25,-46.24"/>
<polygon fill="black" stroke="black" points="246.75,-46.18 243.25,-36.18 239.75,-46.18 246.75,-46.18"/>
<text text-anchor="middle" x="254.25" y="-57.8" font-family="Times,serif" font-size="14.00">true</text>
</g>
<!-- 5 -->
<g id="node6" class="node">
<title>5</title>
<ellipse fill="none" stroke="black" cx="360.25" cy="-105" rx="49.29" ry="18"/>
<text text-anchor="middle" x="360.25" y="-101.3" font-family="Times,serif" font-size="14.00">LocalInput</text>
</g>
<!-- 6 -->
<g id="node7" class="node">
<title>6</title>
<ellipse fill="none" stroke="black" cx="360.25" cy="-18" rx="30.59" ry="18"/>
<text text-anchor="middle" x="360.25" y="-14.3" font-family="Times,serif" font-size="14.00">Latch</text>
</g>
<!-- 5&#45;&gt;6 -->
<g id="edge3" class="edge">
<title>5&#45;&gt;6</title>
<path fill="none" stroke="black" d="M360.25,-86.8C360.25,-75.16 360.25,-59.55 360.25,-46.24"/>
<polygon fill="black" stroke="black" points="363.75,-46.18 360.25,-36.18 356.75,-46.18 363.75,-46.18"/>
<text text-anchor="middle" x="371.25" y="-57.8" font-family="Times,serif" font-size="14.00">true</text>
</g>
<!-- 7 -->
<g id="node8" class="node">
<title>7</title>
<ellipse fill="none" stroke="black" cx="477.25" cy="-105" rx="49.29" ry="18"/>
<text text-anchor="middle" x="477.25" y="-101.3" font-family="Times,serif" font-size="14.00">LocalInput</text>
</g>
<!-- 8 -->
<g id="node9" class="node">
<title>8</title>
<ellipse fill="none" stroke="black" cx="477.25" cy="-18" rx="30.59" ry="18"/>
<text text-anchor="middle" x="477.25" y="-14.3" font-family="Times,serif" font-size="14.00">Latch</text>
</g>
<!-- 7&#45;&gt;8 -->
<g id="edge4" class="edge">
<title>7&#45;&gt;8</title>
<path fill="none" stroke="black" d="M477.25,-86.8C477.25,-75.16 477.25,-59.55 477.25,-46.24"/>
<polygon fill="black" stroke="black" points="480.75,-46.18 477.25,-36.18 473.75,-46.18 480.75,-46.18"/>
<text text-anchor="middle" x="488.25" y="-57.8" font-family="Times,serif" font-size="14.00">true</text>
</g>
<!-- 9 -->
<g id="node10" class="node">
<title>9</title>
<ellipse fill="none" stroke="black" cx="574.25" cy="-105" rx="29.5" ry="18"/>
<text text-anchor="middle" x="574.25" y="-101.3" font-family="Times,serif" font-size="14.00">Input</text>
</g>
<!-- 10 -->
<g id="node11" class="node">
<title>10</title>
<ellipse fill="none" stroke="black" cx="650.25" cy="-105" rx="29.5" ry="18"/>
<text text-anchor="middle" x="650.25" y="-101.3" font-family="Times,serif" font-size="14.00">Input</text>
</g>
<!-- 11 -->
<g id="node12" class="node">
<title>11</title>
<ellipse fill="none" stroke="black" cx="726.25" cy="-105" rx="29.5" ry="18"/>
<text text-anchor="middle" x="726.25" y="-101.3" font-family="Times,serif" font-size="14.00">Input</text>
</g>
<!-- 12 -->
<g id="node13" class="node">
<title>12</title>
<ellipse fill="none" stroke="black" cx="823.25" cy="-105" rx="49.29" ry="18"/>
<text text-anchor="middle" x="823.25" y="-101.3" font-family="Times,serif" font-size="14.00">LocalInput</text>
</g>
<!-- 13 -->
<g id="node14" class="node">
<title>13</title>
<ellipse fill="none" stroke="black" cx="823.25" cy="-18" rx="30.59" ry="18"/>
<text text-anchor="middle" x="823.25" y="-14.3" font-family="Times,serif" font-size="14.00">Latch</text>
</g>
<!-- 12&#45;&gt;13 -->
<g id="edge5" class="edge">
<title>12&#45;&gt;13</title>
<path fill="none" stroke="black" d="M823.25,-86.8C823.25,-75.16 823.25,-59.55 823.25,-46.24"/>
<polygon fill="black" stroke="black" points="826.75,-46.18 823.25,-36.18 819.75,-46.18 826.75,-46.18"/>
<text text-anchor="middle" x="836.25" y="-57.8" font-family="Times,serif" font-size="14.00">false</text>
</g>
<!-- 14 -->
<g id="node15" class="node">
<title>14</title>
<ellipse fill="none" stroke="black" cx="940.25" cy="-105" rx="49.29" ry="18"/>
<text text-anchor="middle" x="940.25" y="-101.3" font-family="Times,serif" font-size="14.00">LocalInput</text>
</g>
<!-- 15 -->
<g id="node16" class="node">
<title>15</title>
<ellipse fill="none" stroke="black" cx="940.25" cy="-18" rx="30.59" ry="18"/>
<text text-anchor="middle" x="940.25" y="-14.3" font-family="Times,serif" font-size="14.00">Latch</text>
</g>
<!-- 14&#45;&gt;15 -->
<g id="edge6" class="edge">
<title>14&#45;&gt;15</title>
<path fill="none" stroke="black" d="M940.25,-86.8C940.25,-75.16 940.25,-59.55 940.25,-46.24"/>
<polygon fill="black" stroke="black" points="943.75,-46.18 940.25,-36.18 936.75,-46.18 943.75,-46.18"/>
<text text-anchor="middle" x="953.25" y="-57.8" font-family="Times,serif" font-size="14.00">false</text>
</g>
<!-- 16 -->
<g id="node17" class="node">
<title>16</title>
<ellipse fill="none" stroke="black" cx="1057.25" cy="-105" rx="49.29" ry="18"/>
<text text-anchor="middle" x="1057.25" y="-101.3" font-family="Times,serif" font-size="14.00">LocalInput</text>
</g>
<!-- 17 -->
<g id="node18" class="node">
<title>17</title>
<ellipse fill="none" stroke="black" cx="1057.25" cy="-18" rx="30.59" ry="18"/>
<text text-anchor="middle" x="1057.25" y="-14.3" font-family="Times,serif" font-size="14.00">Latch</text>
</g>
<!-- 16&#45;&gt;17 -->
<g id="edge7" class="edge">
<title>16&#45;&gt;17</title>
<path fill="none" stroke="black" d="M1057.25,-86.8C1057.25,-75.16 1057.25,-59.55 1057.25,-46.24"/>
<polygon fill="black" stroke="black" points="1060.75,-46.18 1057.25,-36.18 1053.75,-46.18 1060.75,-46.18"/>
<text text-anchor="middle" x="1070.25" y="-57.8" font-family="Times,serif" font-size="14.00">false</text>
</g>
<!-- 18 -->
<g id="node19" class="node">
<title>18</title>
<ellipse fill="none" stroke="black" cx="1174.25" cy="-105" rx="49.29" ry="18"/>
<text text-anchor="middle" x="1174.25" y="-101.3" font-family="Times,serif" font-size="14.00">LocalInput</text>
</g>
<!-- 19 -->
<g id="node20" class="node">
<title>19</title>
<ellipse fill="none" stroke="black" cx="1174.25" cy="-18" rx="30.59" ry="18"/>
<text text-anchor="middle" x="1174.25" y="-14.3" font-family="Times,serif" font-size="14.00">Latch</text>
</g>
<!-- 18&#45;&gt;19 -->
<g id="edge8" class="edge">
<title>18&#45;&gt;19</title>
<path fill="none" stroke="black" d="M1174.25,-86.8C1174.25,-75.16 1174.25,-59.55 1174.25,-46.24"/>
<polygon fill="black" stroke="black" points="1177.75,-46.18 1174.25,-36.18 1170.75,-46.18 1177.75,-46.18"/>
<text text-anchor="middle" x="1187.25" y="-57.8" font-family="Times,serif" font-size="14.00">false</text>
</g>
<!-- 20 -->
<g id="node21" class="node">
<title>20</title>
<ellipse fill="none" stroke="black" cx="1291.25" cy="-105" rx="49.29" ry="18"/>
<text text-anchor="middle" x="1291.25" y="-101.3" font-family="Times,serif" font-size="14.00">LocalInput</text>
</g>
<!-- 21 -->
<g id="node22" class="node">
<title>21</title>
<ellipse fill="none" stroke="black" cx="1291.25" cy="-18" rx="30.59" ry="18"/>
<text text-anchor="middle" x="1291.25" y="-14.3" font-family="Times,serif" font-size="14.00">Latch</text>
</g>
<!-- 20&#45;&gt;21 -->
<g id="edge9" class="edge">
<title>20&#45;&gt;21</title>
<path fill="none" stroke="black" d="M1291.25,-86.8C1291.25,-75.16 1291.25,-59.55 1291.25,-46.24"/>
<polygon fill="black" stroke="black" points="1294.75,-46.18 1291.25,-36.18 1287.75,-46.18 1294.75,-46.18"/>
<text text-anchor="middle" x="1304.25" y="-57.8" font-family="Times,serif" font-size="14.00">false</text>
</g>
<!-- 22 -->
<g id="node23" class="node">
<title>22</title>
<ellipse fill="none" stroke="black" cx="1388.25" cy="-105" rx="29.5" ry="18"/>
<text text-anchor="middle" x="1388.25" y="-101.3" font-family="Times,serif" font-size="14.00">Input</text>
</g>
<!-- 23 -->
<g id="node24" class="node">
<title>23</title>
<ellipse fill="none" stroke="black" cx="1485.25" cy="-105" rx="49.29" ry="18"/>
<text text-anchor="middle" x="1485.25" y="-101.3" font-family="Times,serif" font-size="14.00">LocalInput</text>
</g>
<!-- 24 -->
<g id="node25" class="node">
<title>24</title>
<ellipse fill="none" stroke="black" cx="1485.25" cy="-18" rx="30.59" ry="18"/>
<text text-anchor="middle" x="1485.25" y="-14.3" font-family="Times,serif" font-size="14.00">Latch</text>
</g>
<!-- 23&#45;&gt;24 -->
<g id="edge10" class="edge">
<title>23&#45;&gt;24</title>
<path fill="none" stroke="black" d="M1485.25,-86.8C1485.25,-75.16 1485.25,-59.55 1485.25,-46.24"/>
<polygon fill="black" stroke="black" points="1488.75,-46.18 1485.25,-36.18 1481.75,-46.18 1488.75,-46.18"/>
<text text-anchor="middle" x="1498.25" y="-57.8" font-family="Times,serif" font-size="14.00">false</text>
</g>
</g>
</svg>
