<?xml version="1.0" encoding="UTF-8" standalone="no"?>
<!DOCTYPE svg PUBLIC "-//W3C//DTD SVG 1.1//EN"
 "http://www.w3.org/Graphics/SVG/1.1/DTD/svg11.dtd">
<!-- Generated by graphviz version 2.43.0 (0)
 -->
<!-- Title: ok.aig Pages: 1 -->
<svg width="843pt" height="352pt"
 viewBox="0.00 0.00 842.79 352.00" xmlns="http://www.w3.org/2000/svg" xmlns:xlink="http://www.w3.org/1999/xlink">
<g id="graph0" class="graph" transform="scale(1 1) rotate(0) translate(4 348)">
<title>ok.aig</title>
<polygon fill="white" stroke="transparent" points="-4,4 -4,-348 838.79,-348 838.79,4 -4,4"/>
<!-- 2 -->
<g id="node1" class="node">
<title>2</title>
<polygon fill="none" stroke="black" points="63.4,-118 9.4,-118 9.4,-82 63.4,-82 63.4,-118"/>
<text text-anchor="middle" x="36.4" y="-96.3" font-family="Times,serif" font-size="14.00">2</text>
</g>
<!-- I0 -->
<g id="node2" class="node">
<title>I0</title>
<polygon fill="none" stroke="blue" points="36.4,-46 0.1,-11.5 72.69,-11.5 36.4,-46"/>
<text text-anchor="middle" x="36.4" y="-19.3" font-family="Times,serif" font-size="14.00">I0</text>
</g>
<!-- 2&#45;&gt;I0 -->
<g id="edge1" class="edge">
<title>2&#45;&gt;I0</title>
<path fill="none" stroke="black" d="M36.4,-81.98C36.4,-71.35 36.4,-57.55 36.4,-46.08"/>
</g>
<!-- 4 -->
<g id="node3" class="node">
<title>4</title>
<polygon fill="none" stroke="black" points="279.4,-118 225.4,-118 225.4,-82 279.4,-82 279.4,-118"/>
<text text-anchor="middle" x="252.4" y="-96.3" font-family="Times,serif" font-size="14.00">4</text>
</g>
<!-- I1 -->
<g id="node4" class="node">
<title>I1</title>
<polygon fill="none" stroke="blue" points="252.4,-46 216.1,-11.5 288.69,-11.5 252.4,-46"/>
<text text-anchor="middle" x="252.4" y="-19.3" font-family="Times,serif" font-size="14.00">I1</text>
</g>
<!-- 4&#45;&gt;I1 -->
<g id="edge2" class="edge">
<title>4&#45;&gt;I1</title>
<path fill="none" stroke="black" d="M252.4,-81.98C252.4,-71.35 252.4,-57.55 252.4,-46.08"/>
</g>
<!-- 6 -->
<g id="node5" class="node">
<title>6</title>
<polygon fill="none" stroke="black" points="825.4,-118 771.4,-118 771.4,-82 825.4,-82 825.4,-118"/>
<text text-anchor="middle" x="798.4" y="-96.3" font-family="Times,serif" font-size="14.00">6</text>
</g>
<!-- I2 -->
<g id="node6" class="node">
<title>I2</title>
<polygon fill="none" stroke="blue" points="798.4,-46 762.1,-11.5 834.69,-11.5 798.4,-46"/>
<text text-anchor="middle" x="798.4" y="-19.3" font-family="Times,serif" font-size="14.00">I2</text>
</g>
<!-- 6&#45;&gt;I2 -->
<g id="edge3" class="edge">
<title>6&#45;&gt;I2</title>
<path fill="none" stroke="black" d="M798.4,-81.98C798.4,-71.35 798.4,-57.55 798.4,-46.08"/>
</g>
<!-- 8 -->
<g id="node7" class="node">
<title>8</title>
<polygon fill="none" stroke="black" points="609.4,-118 555.4,-118 555.4,-82 609.4,-82 609.4,-118"/>
<text text-anchor="middle" x="582.4" y="-96.3" font-family="Times,serif" font-size="14.00">8</text>
</g>
<!-- I3 -->
<g id="node8" class="node">
<title>I3</title>
<polygon fill="none" stroke="blue" points="582.4,-46 546.1,-11.5 618.69,-11.5 582.4,-46"/>
<text text-anchor="middle" x="582.4" y="-19.3" font-family="Times,serif" font-size="14.00">I3</text>
</g>
<!-- 8&#45;&gt;I3 -->
<g id="edge4" class="edge">
<title>8&#45;&gt;I3</title>
<path fill="none" stroke="black" d="M582.4,-81.98C582.4,-71.35 582.4,-57.55 582.4,-46.08"/>
</g>
<!-- 28 -->
<g id="node9" class="node">
<title>28</title>
<ellipse fill="none" stroke="black" cx="434.4" cy="-244" rx="27" ry="18"/>
<text text-anchor="middle" x="434.4" y="-240.3" font-family="Times,serif" font-size="14.00">28</text>
</g>
<!-- 18 -->
<g id="node10" class="node">
<title>18</title>
<polygon fill="none" stroke="magenta" points="480.4,-190 426.4,-190 426.4,-154 480.4,-154 480.4,-190"/>
<text text-anchor="middle" x="453.4" y="-168.3" font-family="Times,serif" font-size="14.00">18</text>
</g>
<!-- 28&#45;&gt;18 -->
<g id="edge5" class="edge">
<title>28&#45;&gt;18</title>
<path fill="none" stroke="black" d="M439,-226.05C441.94,-215.21 445.75,-201.18 448.71,-190.28"/>
</g>
<!-- 16 -->
<g id="node11" class="node">
<title>16</title>
<polygon fill="none" stroke="magenta" points="408.4,-190 354.4,-190 354.4,-154 408.4,-154 408.4,-190"/>
<text text-anchor="middle" x="381.4" y="-168.3" font-family="Times,serif" font-size="14.00">16</text>
</g>
<!-- 28&#45;&gt;16 -->
<g id="edge6" class="edge">
<title>28&#45;&gt;16</title>
<path fill="none" stroke="black" d="M422.63,-227.46C414.34,-216.51 403.22,-201.82 394.62,-190.46"/>
</g>
<!-- 30 -->
<g id="node12" class="node">
<title>30</title>
<ellipse fill="none" stroke="black" cx="161.4" cy="-172" rx="27" ry="18"/>
<text text-anchor="middle" x="161.4" y="-168.3" font-family="Times,serif" font-size="14.00">30</text>
</g>
<!-- 22 -->
<g id="node13" class="node">
<title>22</title>
<polygon fill="none" stroke="magenta" points="207.4,-118 153.4,-118 153.4,-82 207.4,-82 207.4,-118"/>
<text text-anchor="middle" x="180.4" y="-96.3" font-family="Times,serif" font-size="14.00">22</text>
</g>
<!-- 30&#45;&gt;22 -->
<g id="edge7" class="edge">
<title>30&#45;&gt;22</title>
<path fill="none" stroke="black" d="M166,-154.05C168.94,-143.21 172.75,-129.18 175.71,-118.28"/>
</g>
<!-- 20 -->
<g id="node14" class="node">
<title>20</title>
<polygon fill="none" stroke="magenta" points="135.4,-118 81.4,-118 81.4,-82 135.4,-82 135.4,-118"/>
<text text-anchor="middle" x="108.4" y="-96.3" font-family="Times,serif" font-size="14.00">20</text>
</g>
<!-- 30&#45;&gt;20 -->
<g id="edge8" class="edge">
<title>30&#45;&gt;20</title>
<path fill="none" stroke="black" d="M149.63,-155.46C141.34,-144.51 130.22,-129.82 121.62,-118.46"/>
</g>
<!-- 32 -->
<g id="node15" class="node">
<title>32</title>
<ellipse fill="none" stroke="black" cx="673.4" cy="-172" rx="27" ry="18"/>
<text text-anchor="middle" x="673.4" y="-168.3" font-family="Times,serif" font-size="14.00">32</text>
</g>
<!-- 26 -->
<g id="node16" class="node">
<title>26</title>
<polygon fill="none" stroke="magenta" points="681.4,-118 627.4,-118 627.4,-82 681.4,-82 681.4,-118"/>
<text text-anchor="middle" x="654.4" y="-96.3" font-family="Times,serif" font-size="14.00">26</text>
</g>
<!-- 32&#45;&gt;26 -->
<g id="edge9" class="edge">
<title>32&#45;&gt;26</title>
<path fill="none" stroke="black" d="M668.8,-154.05C665.85,-143.21 662.05,-129.18 659.09,-118.28"/>
</g>
<!-- 24 -->
<g id="node17" class="node">
<title>24</title>
<polygon fill="none" stroke="magenta" points="753.4,-118 699.4,-118 699.4,-82 753.4,-82 753.4,-118"/>
<text text-anchor="middle" x="726.4" y="-96.3" font-family="Times,serif" font-size="14.00">24</text>
</g>
<!-- 32&#45;&gt;24 -->
<g id="edge10" class="edge">
<title>32&#45;&gt;24</title>
<path fill="none" stroke="black" d="M685.16,-155.46C693.45,-144.51 704.57,-129.82 713.18,-118.46"/>
</g>
<!-- O0 -->
<g id="node18" class="node">
<title>O0</title>
<polygon fill="none" stroke="blue" points="659.4,-344 616.6,-309.5 702.19,-309.5 659.4,-344"/>
<text text-anchor="middle" x="659.4" y="-317.3" font-family="Times,serif" font-size="14.00">O0</text>
</g>
<!-- 10 -->
<g id="node19" class="node">
<title>10</title>
<polygon fill="none" stroke="magenta" points="686.4,-262 632.4,-262 632.4,-226 686.4,-226 686.4,-262"/>
<text text-anchor="middle" x="659.4" y="-240.3" font-family="Times,serif" font-size="14.00">10</text>
</g>
<!-- O0&#45;&gt;10 -->
<g id="edge11" class="edge">
<title>O0&#45;&gt;10</title>
<path fill="none" stroke="black" d="M659.4,-309.25C659.4,-296.94 659.4,-276.6 659.4,-262.1"/>
</g>
<!-- L0 -->
<g id="node20" class="node">
<title>L0</title>
<polygon fill="none" stroke="magenta" points="502.4,-339 473.07,-321 502.4,-303 531.72,-321 502.4,-339"/>
<text text-anchor="middle" x="502.4" y="-317.3" font-family="Times,serif" font-size="14.00">L0</text>
</g>
<!-- L0&#45;&gt;28 -->
<g id="edge12" class="edge">
<title>L0&#45;&gt;28</title>
<path fill="none" stroke="black" d="M492.36,-308.93C480.54,-295.89 460.85,-274.18 447.75,-259.73"/>
</g>
<!-- L0&#45;&gt;10 -->
<g id="edge13" class="edge">
<title>L0&#45;&gt;10</title>
<path fill="none" stroke="magenta" stroke-dasharray="5,2" d="M518.02,-312.53C544.71,-299.79 599.35,-273.68 632.34,-257.92"/>
</g>
<!-- 12 -->
<g id="node21" class="node">
<title>12</title>
<polygon fill="none" stroke="magenta" points="336.4,-190 282.4,-190 282.4,-154 336.4,-154 336.4,-190"/>
<text text-anchor="middle" x="309.4" y="-168.3" font-family="Times,serif" font-size="14.00">12</text>
</g>
<!-- L1 -->
<g id="node22" class="node">
<title>L1</title>
<polygon fill="none" stroke="magenta" points="214.4,-262 185.07,-244 214.4,-226 243.72,-244 214.4,-262"/>
<text text-anchor="middle" x="214.4" y="-240.3" font-family="Times,serif" font-size="14.00">L1</text>
</g>
<!-- L1&#45;&gt;30 -->
<g id="edge14" class="edge">
<title>L1&#45;&gt;30</title>
<path fill="none" stroke="black" d="M205.41,-231.13C196.49,-219.35 182.78,-201.24 173.03,-188.37"/>
</g>
<!-- L1&#45;&gt;12 -->
<g id="edge15" class="edge">
<title>L1&#45;&gt;12</title>
<path fill="none" stroke="magenta" stroke-dasharray="5,2" d="M227.21,-233.56C242.3,-222.44 267.67,-203.75 286.24,-190.07"/>
</g>
<!-- 14 -->
<g id="node23" class="node">
<title>14</title>
<polygon fill="none" stroke="magenta" points="552.4,-190 498.4,-190 498.4,-154 552.4,-154 552.4,-190"/>
<text text-anchor="middle" x="525.4" y="-168.3" font-family="Times,serif" font-size="14.00">14</text>
</g>
<!-- L2 -->
<g id="node24" class="node">
<title>L2</title>
<polygon fill="none" stroke="magenta" points="585.4,-262 556.07,-244 585.4,-226 614.72,-244 585.4,-262"/>
<text text-anchor="middle" x="585.4" y="-240.3" font-family="Times,serif" font-size="14.00">L2</text>
</g>
<!-- L2&#45;&gt;32 -->
<g id="edge16" class="edge">
<title>L2&#45;&gt;32</title>
<path fill="none" stroke="black" d="M597.63,-233.27C613.03,-221.02 639.53,-199.94 656.76,-186.23"/>
</g>
<!-- L2&#45;&gt;14 -->
<g id="edge17" class="edge">
<title>L2&#45;&gt;14</title>
<path fill="none" stroke="magenta" stroke-dasharray="5,2" d="M575.76,-231.75C566.15,-220.55 551.27,-203.19 540.17,-190.24"/>
</g>
<!-- L3 -->
<g id="node25" class="node">
<title>L3</title>
<polygon fill="none" stroke="magenta" points="326.4,-262 297.07,-244 326.4,-226 355.72,-244 326.4,-262"/>
<text text-anchor="middle" x="326.4" y="-240.3" font-family="Times,serif" font-size="14.00">L3</text>
</g>
<!-- L3&#45;&gt;16 -->
<g id="edge19" class="edge">
<title>L3&#45;&gt;16</title>
<path fill="none" stroke="magenta" stroke-dasharray="5,2" d="M335.48,-231.44C344.33,-220.18 357.88,-202.93 367.98,-190.08"/>
</g>
<!-- L3&#45;&gt;12 -->
<g id="edge18" class="edge">
<title>L3&#45;&gt;12</title>
<path fill="none" stroke="black" d="M322.79,-228.15C320.08,-217 316.37,-201.7 313.54,-190.04"/>
</g>
<!-- L4 -->
<g id="node26" class="node">
<title>L4</title>
<polygon fill="none" stroke="magenta" points="508.4,-262 479.07,-244 508.4,-226 537.72,-244 508.4,-262"/>
<text text-anchor="middle" x="508.4" y="-240.3" font-family="Times,serif" font-size="14.00">L4</text>
</g>
<!-- L4&#45;&gt;18 -->
<g id="edge21" class="edge">
<title>L4&#45;&gt;18</title>
<path fill="none" stroke="magenta" stroke-dasharray="5,2" d="M499.31,-231.44C490.47,-220.18 476.91,-202.93 466.82,-190.08"/>
</g>
<!-- L4&#45;&gt;14 -->
<g id="edge20" class="edge">
<title>L4&#45;&gt;14</title>
<path fill="none" stroke="black" d="M512,-228.15C514.71,-217 518.43,-201.7 521.26,-190.04"/>
</g>
<!-- L5 -->
<g id="node27" class="node">
<title>L5</title>
<polygon fill="none" stroke="magenta" points="70.4,-190 41.07,-172 70.4,-154 99.72,-172 70.4,-190"/>
<text text-anchor="middle" x="70.4" y="-168.3" font-family="Times,serif" font-size="14.00">L5</text>
</g>
<!-- L5&#45;&gt;2 -->
<g id="edge22" class="edge">
<title>L5&#45;&gt;2</title>
<path fill="none" stroke="black" d="M64,-157.83C58.54,-146.59 50.64,-130.33 44.69,-118.08"/>
</g>
<!-- L5&#45;&gt;20 -->
<g id="edge23" class="edge">
<title>L5&#45;&gt;20</title>
<path fill="none" stroke="magenta" stroke-dasharray="5,2" d="M77.37,-158.16C83.45,-146.95 92.33,-130.59 99.04,-118.24"/>
</g>
<!-- L6 -->
<g id="node28" class="node">
<title>L6</title>
<polygon fill="none" stroke="magenta" points="235.4,-190 206.07,-172 235.4,-154 264.72,-172 235.4,-190"/>
<text text-anchor="middle" x="235.4" y="-168.3" font-family="Times,serif" font-size="14.00">L6</text>
</g>
<!-- L6&#45;&gt;4 -->
<g id="edge24" class="edge">
<title>L6&#45;&gt;4</title>
<path fill="none" stroke="black" d="M239,-156.15C241.71,-145 245.43,-129.7 248.26,-118.04"/>
</g>
<!-- L6&#45;&gt;22 -->
<g id="edge25" class="edge">
<title>L6&#45;&gt;22</title>
<path fill="none" stroke="magenta" stroke-dasharray="5,2" d="M226.31,-159.44C217.47,-148.18 203.91,-130.93 193.82,-118.08"/>
</g>
<!-- L7 -->
<g id="node29" class="node">
<title>L7</title>
<polygon fill="none" stroke="magenta" points="781.4,-190 752.07,-172 781.4,-154 810.72,-172 781.4,-190"/>
<text text-anchor="middle" x="781.4" y="-168.3" font-family="Times,serif" font-size="14.00">L7</text>
</g>
<!-- L7&#45;&gt;6 -->
<g id="edge26" class="edge">
<title>L7&#45;&gt;6</title>
<path fill="none" stroke="black" d="M785,-156.15C787.71,-145 791.43,-129.7 794.26,-118.04"/>
</g>
<!-- L7&#45;&gt;24 -->
<g id="edge27" class="edge">
<title>L7&#45;&gt;24</title>
<path fill="none" stroke="magenta" stroke-dasharray="5,2" d="M772.31,-159.44C763.47,-148.18 749.91,-130.93 739.82,-118.08"/>
</g>
<!-- L8 -->
<g id="node30" class="node">
<title>L8</title>
<polygon fill="none" stroke="magenta" points="599.4,-190 570.07,-172 599.4,-154 628.72,-172 599.4,-190"/>
<text text-anchor="middle" x="599.4" y="-168.3" font-family="Times,serif" font-size="14.00">L8</text>
</g>
<!-- L8&#45;&gt;8 -->
<g id="edge28" class="edge">
<title>L8&#45;&gt;8</title>
<path fill="none" stroke="black" d="M595.79,-156.15C593.08,-145 589.37,-129.7 586.54,-118.04"/>
</g>
<!-- L8&#45;&gt;26 -->
<g id="edge29" class="edge">
<title>L8&#45;&gt;26</title>
<path fill="none" stroke="magenta" stroke-dasharray="5,2" d="M608.48,-159.44C617.33,-148.18 630.88,-130.93 640.98,-118.08"/>
</g>
</g>
</svg>
