<?xml version="1.0" encoding="UTF-8" standalone="no"?>
<!DOCTYPE svg PUBLIC "-//W3C//DTD SVG 1.1//EN"
 "http://www.w3.org/Graphics/SVG/1.1/DTD/svg11.dtd">
<!-- Generated by graphviz version 2.43.0 (0)
 -->
<!-- Title: %3 Pages: 1 -->
<svg width="687pt" height="131pt"
 viewBox="0.00 0.00 686.64 131.00" xmlns="http://www.w3.org/2000/svg" xmlns:xlink="http://www.w3.org/1999/xlink">
<g id="graph0" class="graph" transform="scale(1 1) rotate(0) translate(4 127)">
<title>%3</title>
<polygon fill="white" stroke="transparent" points="-4,4 -4,-127 682.64,-127 682.64,4 -4,4"/>
<!-- 0 -->
<g id="node1" class="node">
<title>0</title>
<ellipse fill="none" stroke="black" cx="29.25" cy="-105" rx="29.5" ry="18"/>
<text text-anchor="middle" x="29.25" y="-101.3" font-family="Times,serif" font-size="14.00">False</text>
</g>
<!-- 1 -->
<g id="node2" class="node">
<title>1</title>
<ellipse fill="none" stroke="black" cx="105.25" cy="-105" rx="29.5" ry="18"/>
<text text-anchor="middle" x="105.25" y="-101.3" font-family="Times,serif" font-size="14.00">Input</text>
</g>
<!-- 2 -->
<g id="node3" class="node">
<title>2</title>
<ellipse fill="none" stroke="black" cx="181.25" cy="-105" rx="29.5" ry="18"/>
<text text-anchor="middle" x="181.25" y="-101.3" font-family="Times,serif" font-size="14.00">Input</text>
</g>
<!-- 3 -->
<g id="node4" class="node">
<title>3</title>
<ellipse fill="none" stroke="black" cx="278.25" cy="-105" rx="49.29" ry="18"/>
<text text-anchor="middle" x="278.25" y="-101.3" font-family="Times,serif" font-size="14.00">LocalInput</text>
</g>
<!-- 4 -->
<g id="node5" class="node">
<title>4</title>
<ellipse fill="none" stroke="black" cx="278.25" cy="-18" rx="30.59" ry="18"/>
<text text-anchor="middle" x="278.25" y="-14.3" font-family="Times,serif" font-size="14.00">Latch</text>
</g>
<!-- 3&#45;&gt;4 -->
<g id="edge1" class="edge">
<title>3&#45;&gt;4</title>
<path fill="none" stroke="black" d="M278.25,-86.8C278.25,-75.16 278.25,-59.55 278.25,-46.24"/>
<polygon fill="black" stroke="black" points="281.75,-46.18 278.25,-36.18 274.75,-46.18 281.75,-46.18"/>
<text text-anchor="middle" x="291.25" y="-57.8" font-family="Times,serif" font-size="14.00">false</text>
</g>
<!-- 5 -->
<g id="node6" class="node">
<title>5</title>
<ellipse fill="none" stroke="black" cx="395.25" cy="-105" rx="49.29" ry="18"/>
<text text-anchor="middle" x="395.25" y="-101.3" font-family="Times,serif" font-size="14.00">LocalInput</text>
</g>
<!-- 6 -->
<g id="node7" class="node">
<title>6</title>
<ellipse fill="none" stroke="black" cx="395.25" cy="-18" rx="30.59" ry="18"/>
<text text-anchor="middle" x="395.25" y="-14.3" font-family="Times,serif" font-size="14.00">Latch</text>
</g>
<!-- 5&#45;&gt;6 -->
<g id="edge2" class="edge">
<title>5&#45;&gt;6</title>
<path fill="none" stroke="black" d="M395.25,-86.8C395.25,-75.16 395.25,-59.55 395.25,-46.24"/>
<polygon fill="black" stroke="black" points="398.75,-46.18 395.25,-36.18 391.75,-46.18 398.75,-46.18"/>
<text text-anchor="middle" x="408.25" y="-57.8" font-family="Times,serif" font-size="14.00">false</text>
</g>
<!-- 7 -->
<g id="node8" class="node">
<title>7</title>
<ellipse fill="none" stroke="black" cx="512.25" cy="-105" rx="49.29" ry="18"/>
<text text-anchor="middle" x="512.25" y="-101.3" font-family="Times,serif" font-size="14.00">LocalInput</text>
</g>
<!-- 8 -->
<g id="node9" class="node">
<title>8</title>
<ellipse fill="none" stroke="black" cx="512.25" cy="-18" rx="30.59" ry="18"/>
<text text-anchor="middle" x="512.25" y="-14.3" font-family="Times,serif" font-size="14.00">Latch</text>
</g>
<!-- 7&#45;&gt;8 -->
<g id="edge3" class="edge">
<title>7&#45;&gt;8</title>
<path fill="none" stroke="black" d="M512.25,-86.8C512.25,-75.16 512.25,-59.55 512.25,-46.24"/>
<polygon fill="black" stroke="black" points="515.75,-46.18 512.25,-36.18 508.75,-46.18 515.75,-46.18"/>
<text text-anchor="middle" x="525.25" y="-57.8" font-family="Times,serif" font-size="14.00">false</text>
</g>
<!-- 9 -->
<g id="node10" class="node">
<title>9</title>
<ellipse fill="none" stroke="black" cx="629.25" cy="-105" rx="49.29" ry="18"/>
<text text-anchor="middle" x="629.25" y="-101.3" font-family="Times,serif" font-size="14.00">LocalInput</text>
</g>
<!-- 10 -->
<g id="node11" class="node">
<title>10</title>
<ellipse fill="none" stroke="black" cx="629.25" cy="-18" rx="35.19" ry="18"/>
<text text-anchor="middle" x="629.25" y="-14.3" font-family="Times,serif" font-size="14.00">Output</text>
</g>
<!-- 9&#45;&gt;10 -->
<g id="edge4" class="edge">
<title>9&#45;&gt;10</title>
<path fill="none" stroke="black" d="M629.25,-86.8C629.25,-75.16 629.25,-59.55 629.25,-46.24"/>
<polygon fill="black" stroke="black" points="632.75,-46.18 629.25,-36.18 625.75,-46.18 632.75,-46.18"/>
<text text-anchor="middle" x="642.25" y="-57.8" font-family="Times,serif" font-size="14.00">false</text>
</g>
</g>
</svg>
